<svg xmlns="http://www.w3.org/2000/svg" version="1.0" width="805.000000pt" height="975.000000pt" viewBox="0 0 805.000000 975.000000" preserveAspectRatio="xMidYMid meet">
<metadata>
Created by potrace 1.16, written by Peter Selinger 2001-2019
</metadata>
<g transform="translate(0.000000,975.000000) scale(0.100000,-0.100000)" fill="#000000" stroke="none">
<path d="M0 8199 l0 -1552 55 6 c71 7 81 14 59 38 -15 16 -15 19 -2 19 9 0 18 7 22 15 3 8 10 15 16 15 5 0 10 -7 10 -15 0 -8 9 -15 20 -15 17 0 20 7 20 40 0 22 5 40 10 40 6 0 10 18 10 39 0 36 3 40 40 55 22 9 53 16 69 16 37 0 45 10 24 32 -14 16 -14 18 -1 18 9 0 18 7 22 15 3 8 10 15 16 15 5 0 10 -7 10 -15 0 -23 15 -18 49 16 35 35 38 54 14 81 -15 17 -15 18 0 18 10 0 17 -7 17 -15 0 -17 18 -19 40 -5 12 7 11 12 -5 30 -24 27 -11 37 58 46 45 6 58 16 37 29 -20 12 -9 25 21 25 21 0 37 8 50 24 11 14 28 28 39 31 30 10 24 25 -10 25 -16 0 -30 5 -30 10 0 16 31 24 39 11 6 -8 18 -1 40 24 35 40 85 65 129 65 37 0 46 9 27 30 -14 15 -13 20 6 44 15 19 27 25 40 21 14 -5 24 2 39 28 23 38 72 67 117 68 34 1 79 17 51 18 -25 1 -22 16 7 39 14 11 25 25 25 31 0 6 6 11 13 11 7 0 18 9 25 21 7 11 33 29 57 39 43 18 45 21 45 60 0 22 5 40 10 40 6 0 10 -7 10 -15 0 -11 11 -15 40 -15 26 0 40 5 40 13 0 8 14 12 43 11 23 -1 30 0 15 3 -16 2 -28 8 -28 13 0 14 51 50 71 50 23 0 34 19 20 33 -19 19 -12 37 14 37 19 0 25 -5 25 -22 1 -21 4 -20 35 15 20 20 42 37 51 37 9 0 25 11 36 25 13 17 26 24 38 20 22 -7 55 34 40 49 -18 18 -10 36 15 36 19 0 25 -5 25 -22 0 -21 1 -21 30 7 17 16 28 37 27 49 -1 13 4 21 13 21 11 0 14 -9 12 -30 -3 -29 -3 -29 16 -12 11 10 23 37 27 60 7 42 7 42 17 14 11 -32 28 -31 45 3 8 17 9 29 1 43 -14 28 3 41 35 26 31 -14 62 4 52 29 -5 15 21 52 37 52 4 0 8 -11 8 -25 0 -33 15 -32 45 3 21 23 26 25 34 12 8 -12 13 -12 22 -3 10 10 9 14 -4 19 -19 7 -23 24 -6 24 6 0 20 11 31 25 13 17 26 24 38 20 11 -4 23 1 32 12 7 10 40 28 72 38 72 24 108 50 87 64 -24 16 19 30 76 24 44 -5 53 -3 53 10 0 9 -8 20 -17 26 -28 15 -7 26 46 23 45 -2 51 1 85 38 20 22 43 40 52 40 9 0 25 11 36 25 11 14 24 25 29 25 5 0 9 -11 9 -25 0 -14 5 -25 11 -25 6 0 20 11 31 25 11 14 28 25 39 25 11 0 23 10 28 24 11 28 36 40 59 27 11 -6 20 -4 27 6 7 9 17 14 23 12 6 -2 -15 -41 -45 -87 -41 -61 -58 -80 -65 -70 -5 8 -6 3 -2 -15 3 -15 2 -33 -3 -40 -21 -26 -43 -115 -50 -195 -3 -49 -12 -89 -20 -97 -7 -8 -39 -17 -70 -20 -83 -10 -123 -29 -123 -57 0 -13 9 -77 20 -143 11 -66 25 -147 31 -180 12 -75 33 -95 101 -95 l49 0 -6 -32 c-10 -56 -8 -149 9 -543 1 -22 6 -47 11 -55 13 -19 35 -78 42 -110 3 -14 14 -36 24 -49 11 -13 19 -29 19 -36 0 -7 11 -23 24 -37 14 -13 34 -49 46 -80 11 -31 27 -59 35 -62 8 -3 15 -11 15 -18 0 -8 9 -20 20 -28 11 -8 20 -23 20 -34 0 -23 -184 -213 -214 -221 -58 -16 -159 -64 -221 -105 -38 -25 -88 -51 -110 -57 -53 -15 -199 -74 -310 -125 -49 -23 -130 -54 -180 -70 -49 -16 -119 -41 -155 -55 -36 -14 -83 -32 -105 -40 -52 -18 -375 -181 -396 -199 -8 -8 -32 -14 -52 -14 -102 0 -154 -69 -171 -230 -5 -37 -1 -73 9 -110 53 -182 54 -192 10 -349 -17 -61 -8 -92 39 -146 19 -22 26 -42 27 -75 4 -139 -14 -211 -77 -306 -43 -65 -39 -94 18 -130 32 -21 39 -30 34 -47 -3 -12 -9 -70 -13 -129 l-6 -107 -36 -23 c-49 -32 -51 -59 -7 -103 48 -47 49 -95 6 -150 -35 -44 -37 -68 -12 -110 29 -47 32 -75 17 -135 -23 -93 -16 -620 11 -755 3 -16 9 -104 13 -195 8 -174 21 -227 69 -276 31 -32 46 -67 102 -239 137 -421 159 -466 274 -582 39 -40 78 -80 86 -88 96 -99 189 -155 258 -155 15 0 44 -3 64 -6 l38 -7 -6 -41 c-6 -40 -35 -212 -73 -431 -11 -60 -25 -146 -31 -190 -7 -44 -21 -104 -32 -133 -11 -29 -30 -98 -44 -155 -13 -56 -35 -142 -49 -192 -28 -101 -35 -252 -12 -260 6 -3 1106 -4 2443 -3 l2431 3 -44 170 c-24 94 -48 186 -53 205 -13 48 -14 46 20 60 17 7 33 22 36 34 11 44 -168 503 -240 613 -14 23 -41 102 -65 200 -36 139 -124 441 -146 496 -6 15 0 17 64 17 41 0 103 9 147 21 62 17 85 29 122 65 40 38 63 49 161 80 101 32 118 41 158 81 24 26 58 76 74 112 46 99 125 329 165 474 42 156 84 261 124 306 46 52 38 101 -38 210 -43 61 -45 69 -54 160 -4 53 -17 137 -27 186 -36 169 -42 239 -25 287 22 60 12 104 -32 149 -43 45 -84 156 -84 232 0 31 -7 59 -19 75 -21 32 -51 116 -51 148 0 12 7 27 15 34 8 7 15 23 15 37 0 19 -9 28 -40 41 -26 11 -44 27 -52 47 -14 32 -17 167 -4 200 5 15 0 29 -18 49 -29 34 -46 93 -35 121 17 45 10 89 -20 117 -36 34 -57 111 -42 152 17 44 13 71 -16 101 -27 26 -27 27 -8 41 45 32 55 45 55 70 0 27 -31 75 -77 123 -35 36 -38 66 -14 135 25 72 27 132 6 224 -20 85 -42 122 -88 147 -31 17 -41 18 -68 8 -28 -11 -36 -10 -60 7 -15 11 -42 23 -61 27 -18 3 -54 17 -80 30 -75 38 -455 160 -553 178 -149 28 -369 102 -510 173 -38 19 -109 49 -156 67 -47 17 -95 40 -106 51 -11 10 -77 72 -147 138 -86 81 -146 147 -187 206 -33 49 -67 91 -76 94 -13 5 -14 18 -9 74 9 88 33 172 51 179 8 3 13 9 10 13 -3 4 2 13 10 20 8 7 15 18 15 25 0 7 9 24 20 37 10 14 16 28 13 32 -3 3 1 6 10 6 50 0 59 115 11 141 -26 14 -31 25 -11 26 6 1 27 4 45 8 26 6 32 4 32 -9 0 -25 33 -16 45 12 5 12 13 22 17 22 5 0 8 7 8 15 0 8 7 15 15 15 19 0 19 5 -1 35 -9 13 -14 30 -11 37 4 8 6 6 6 -4 1 -15 21 -28 21 -14 0 10 -31 75 -37 78 -5 3 -2 3 5 2 18 -5 15 23 -5 30 -9 4 -20 1 -25 -6 -4 -7 -8 -8 -8 -3 1 18 38 55 55 55 9 0 13 5 10 11 -4 6 -13 8 -20 5 -9 -3 -15 5 -18 22 l-3 27 -11 -25 c-6 -14 -14 -23 -19 -20 -4 3 -12 -10 -16 -27 -5 -18 -13 -33 -18 -33 -5 0 -21 -11 -36 -25 -33 -31 -54 -20 -36 19 9 20 8 25 -5 28 -17 3 -26 80 -13 108 32 65 33 71 23 81 -12 12 -6 40 11 51 15 10 26 -1 26 -27 0 -31 40 -135 52 -135 6 0 7 7 2 18 -5 9 -8 46 -9 82 0 55 3 65 17 65 31 0 41 20 33 66 -8 45 -60 110 -82 102 -16 -6 -28 18 -13 27 7 4 10 15 7 25 -4 9 -11 13 -17 10 -6 -4 -10 8 -10 29 0 19 -6 55 -13 78 -8 24 -20 68 -26 98 -37 162 -121 366 -164 398 -9 7 -15 17 -13 21 3 4 -8 12 -24 19 -19 9 -27 18 -23 28 3 9 -2 14 -16 14 -15 0 -19 4 -14 17 5 12 2 15 -10 10 -9 -3 -19 -2 -22 3 -4 6 7 10 24 10 18 0 31 -5 31 -12 0 -8 3 -9 8 -3 4 6 18 16 32 22 21 10 11 11 -54 6 -57 -4 -77 -2 -72 6 4 6 3 11 -2 11 -5 0 -12 8 -16 18 -3 9 -9 23 -12 30 -3 7 1 12 10 12 9 0 16 -6 16 -14 0 -10 74 -46 96 -46 1 0 4 9 6 20 3 18 4 19 38 2 19 -9 37 -20 38 -24 2 -4 12 -8 22 -8 10 0 20 -7 24 -15 6 -17 36 -21 36 -5 0 6 18 10 40 10 29 0 40 -4 40 -15 0 -11 11 -15 40 -15 22 0 40 5 40 10 0 6 13 4 30 -5 33 -17 206 -22 212 -5 2 6 15 4 32 -5 36 -19 46 -19 46 0 0 19 11 19 35 2 12 -10 15 -16 6 -21 -8 -5 -8 -11 2 -21 11 -10 31 -11 102 -2 67 8 90 8 93 -1 2 -7 21 -12 43 -12 21 0 39 -4 39 -10 0 -5 18 -10 40 -10 22 0 40 -4 40 -10 0 -14 77 -13 82 2 3 7 13 2 26 -13 20 -20 32 -24 87 -24 36 0 60 -1 55 -3 -6 -2 -10 -12 -10 -21 0 -22 70 -47 81 -29 5 8 16 8 40 -1 24 -8 34 -8 40 0 5 8 17 8 45 -2 32 -11 35 -14 17 -17 -26 -4 -29 -12 -11 -30 16 -16 28 -15 28 3 0 11 11 15 40 15 30 0 40 4 40 16 0 11 5 14 16 10 9 -3 19 -6 22 -6 4 0 0 -5 -8 -10 -13 -8 -11 -14 12 -37 23 -23 35 -27 73 -24 35 2 45 -1 45 -13 0 -12 10 -16 40 -16 36 0 40 -2 40 -26 l0 -26 90 3 91 3 19 -32 c17 -28 25 -32 64 -32 24 0 63 -7 86 -15 23 -8 62 -15 86 -15 24 0 44 -4 44 -10 0 -5 16 -10 36 -10 29 0 44 -8 70 -34 30 -31 36 -33 86 -30 29 1 43 0 31 -2 -30 -7 -29 -20 3 -41 20 -12 55 -18 139 -21 108 -4 113 -6 124 -29 6 -13 11 -31 11 -40 0 -9 3 -13 8 -9 7 8 8 13 11 41 0 8 8 15 16 15 10 0 15 -10 15 -32 0 -17 3 -29 6 -25 4 3 23 -1 43 -9 23 -10 37 -11 39 -4 4 11 100 14 127 4 13 -5 14 -9 4 -15 -27 -16 10 -36 78 -42 45 -3 71 -10 79 -21 13 -18 34 -22 34 -6 0 6 18 10 40 10 38 0 40 2 40 30 0 17 5 30 10 30 15 0 12 -77 -2 -83 -7 -3 17 -6 55 -6 l67 -1 0 765 0 765 -4025 0 -4025 0 0 -1551z m3620 807 c0 -6 5 -3 11 7 14 23 25 21 33 -5 5 -18 8 -20 15 -9 5 7 11 9 14 4 4 -6 21 -9 39 -7 18 1 43 -4 55 -12 12 -8 29 -14 38 -14 8 0 15 -4 15 -10 0 -5 6 -10 13 -10 17 0 47 -62 47 -96 0 -25 34 -82 58 -97 6 -4 12 -17 12 -27 0 -11 7 -20 15 -20 8 0 21 -11 30 -23 8 -13 33 -30 55 -37 52 -17 51 -27 -1 -22 -23 3 -51 -1 -63 -7 -11 -6 -60 -12 -108 -14 -72 -3 -93 -8 -125 -28 -21 -13 -47 -29 -58 -35 -11 -6 -23 -24 -26 -40 l-7 -29 -2 30 -2 30 -10 -34 c-7 -26 -6 -36 4 -42 7 -5 9 -9 3 -9 -5 0 -4 -4 4 -9 9 -6 -2 -16 -40 -34 -79 -38 -87 -47 -92 -103 l-3 -49 -2 51 -2 51 -48 -5 c-54 -5 -61 0 -101 67 -17 28 -27 37 -33 28 -5 -8 -8 -7 -8 6 0 9 -4 17 -10 17 -5 0 -10 8 -10 19 0 14 -12 22 -44 30 -25 6 -54 11 -65 11 -12 0 -21 5 -21 10 0 6 7 10 15 10 8 0 15 4 15 9 0 5 13 14 30 21 51 21 127 130 90 130 -5 0 -10 9 -10 20 0 22 80 110 99 110 6 0 11 6 11 13 0 8 10 22 21 33 12 10 25 29 30 42 5 12 15 22 23 22 7 0 16 7 20 15 3 8 12 15 20 15 9 0 18 11 22 24 6 25 34 26 34 2z m516 -506 c17 0 23 4 18 13 -5 9 -4 9 5 1 8 -7 36 -10 76 -7 55 5 63 3 68 -13 14 -50 51 -343 44 -350 -3 -3 -8 13 -12 34 -5 32 -12 42 -31 46 -32 8 -45 0 -37 -22 6 -14 4 -15 -9 -5 -36 30 -39 -39 -3 -91 l25 -37 -26 -9 c-13 -6 -37 -12 -52 -16 -26 -5 -26 -5 -8 10 11 9 28 16 38 16 17 0 17 2 1 43 -9 23 -23 49 -31 57 -13 13 -14 12 -8 -15 l6 -30 -15 28 c-9 15 -20 27 -26 27 -5 0 -23 10 -39 22 -23 16 -28 28 -26 49 2 16 9 36 16 44 10 12 10 19 2 27 -7 7 -12 18 -12 26 0 7 11 1 26 -15 l25 -28 -6 60 c-5 56 -5 58 9 35 9 -14 16 -36 16 -50 1 -22 2 -23 11 -7 6 10 8 29 5 43 -4 13 -2 24 3 24 6 0 15 -19 22 -42 24 -90 24 -90 65 -71 l36 18 -7 75 c-10 105 -14 111 -78 105 -121 -10 -177 -18 -177 -26 0 -7 -60 -3 -90 8 -11 4 -8 8 10 15 38 15 100 19 100 7 0 -6 8 -3 17 7 11 11 18 13 21 5 2 -6 15 -11 28 -11z m-523 -400 c106 -153 137 -171 332 -194 77 -9 178 -16 224 -15 72 0 86 -2 106 -21 33 -31 37 -80 14 -152 -10 -33 -19 -69 -19 -80 0 -10 -8 -22 -17 -25 -19 -7 -82 -73 -83 -85 0 -5 -9 -8 -20 -8 -10 0 -23 -8 -28 -17 -13 -22 -74 -24 -84 -3 -5 11 -7 9 -7 -8 -1 -19 -4 -21 -20 -13 -10 6 -21 7 -25 4 -3 -3 -6 0 -6 8 0 12 -2 12 -9 0 -8 -12 -12 -12 -25 -2 -12 10 -16 10 -16 2 0 -8 -6 -7 -16 3 -8 9 -31 16 -49 16 -18 0 -40 6 -47 13 -27 25 -69 48 -86 45 -9 -2 -17 3 -17 10 0 16 -55 44 -72 37 -8 -2 -11 -9 -8 -15 3 -5 2 -10 -4 -10 -5 0 -13 5 -16 10 -4 6 -11 8 -16 5 -5 -4 -9 0 -9 8 0 8 11 18 25 21 14 4 25 13 25 21 0 17 39 35 73 34 l22 0 -22 -9 c-40 -16 -25 -30 31 -30 30 0 62 3 71 6 21 8 45 56 45 89 0 34 -26 94 -53 123 -26 28 -64 51 -52 32 5 -9 1 -10 -14 -5 -16 5 -20 3 -15 -9 3 -9 14 -16 25 -16 13 0 22 -12 30 -39 19 -62 11 -69 -75 -68 -47 0 -81 -5 -91 -13 -8 -7 -15 -9 -15 -5 0 3 -12 -7 -26 -24 -38 -46 -79 -43 -128 9 -35 37 -38 45 -33 81 3 22 12 48 21 58 9 10 16 24 16 32 0 8 12 34 25 58 16 27 28 68 32 105 3 34 10 69 15 79 16 32 50 16 91 -43z m-299 -312 c-12 -34 -13 -189 -1 -221 7 -21 15 -27 29 -24 11 3 18 0 18 -9 0 -8 -7 -14 -16 -14 -8 0 -12 -4 -9 -10 5 -9 -24 -15 -48 -11 -5 1 -11 -8 -14 -19 -3 -11 -10 -20 -15 -20 -5 0 -6 9 -3 20 4 12 2 20 -5 20 -7 0 -14 -9 -17 -20 -3 -11 -8 -20 -12 -20 -3 0 -12 9 -19 20 -7 11 -19 20 -27 20 -8 0 -15 9 -15 20 0 26 -40 101 -50 95 -4 -3 -10 1 -13 8 -7 18 3 67 14 67 5 0 9 5 9 11 0 26 139 103 194 108 4 1 5 -9 0 -21z m471 -310 c-6 -17 -4 -20 11 -14 9 4 20 3 23 -2 3 -4 21 -18 39 -31 58 -41 20 -49 -71 -15 -41 15 -97 19 -97 6 0 -5 -21 -10 -47 -12 -69 -5 -83 -3 -131 11 -30 9 -45 10 -50 3 -10 -15 -62 -27 -62 -14 0 5 5 10 10 10 6 0 23 9 38 20 15 11 45 20 67 21 22 1 63 7 90 14 28 7 78 10 113 7 42 -3 62 -1 62 7 0 6 3 11 6 11 3 0 2 -10 -1 -22z m92 -144 c19 -7 48 -10 68 -7 30 5 34 3 29 -11 -4 -11 -1 -16 14 -16 14 0 20 -6 20 -17 -1 -10 2 -29 6 -42 6 -18 5 -22 -5 -15 -8 5 -21 9 -29 10 -8 1 -23 2 -33 3 -11 0 -18 8 -16 19 1 9 1 20 0 24 0 4 -45 -11 -98 -34 -54 -22 -120 -46 -146 -54 -98 -26 -229 -30 -226 -6 3 20 -2 33 -11 27 -5 -3 -10 1 -10 9 0 10 -6 13 -15 10 -9 -4 -15 0 -15 9 0 8 -6 17 -12 20 -7 2 6 14 29 25 31 16 60 22 110 22 49 0 64 3 53 10 -11 8 -9 9 11 5 17 -4 32 -1 41 8 8 9 26 17 39 19 43 7 163 -4 196 -18z m11 -270 c21 -19 21 -23 9 -59 -18 -53 -54 -78 -115 -80 -26 -1 -54 -5 -60 -9 -7 -4 -12 -1 -12 8 0 18 -16 21 -25 6 -8 -13 -95 -13 -95 0 0 6 -18 18 -40 27 -55 24 -54 53 0 82 22 12 53 21 68 21 15 1 38 7 51 14 15 8 55 12 110 11 73 -1 91 -4 109 -21z m804 -182 c25 -93 28 -232 8 -327 -10 -44 -47 -168 -83 -275 -36 -107 -72 -226 -81 -265 -8 -38 -28 -126 -45 -195 -16 -69 -43 -199 -61 -290 -18 -91 -36 -169 -40 -174 -5 -5 -12 9 -16 30 -9 49 -39 118 -74 169 -62 91 -87 172 -61 200 4 6 14 32 20 59 7 26 28 80 47 118 l35 70 -27 40 c-34 49 -100 107 -132 115 -14 3 -30 -1 -42 -12 -10 -9 -38 -18 -61 -20 -39 -3 -49 -9 -91 -60 -27 -31 -48 -61 -48 -66 0 -6 11 -20 24 -32 42 -38 93 -258 68 -290 -14 -18 -60 -163 -74 -235 -7 -34 -17 -63 -23 -63 -5 0 -41 82 -79 183 -133 355 -241 611 -318 753 -97 179 -140 296 -104 282 8 -3 33 -11 55 -17 25 -6 48 -21 58 -36 13 -20 22 -25 43 -21 44 9 142 -45 295 -163 114 -88 212 -150 238 -150 14 0 47 18 78 42 78 61 356 347 384 394 22 38 46 137 60 257 8 64 26 56 47 -21z m-414 -2159 c3 -30 1 -33 -25 -34 -15 0 -37 -4 -48 -9 -16 -7 -13 -9 18 -9 34 -1 37 -3 37 -31 0 -29 -2 -30 -45 -30 -50 0 -67 18 -47 51 15 24 15 29 -2 29 -7 0 -16 10 -20 23 -12 46 -10 48 62 45 l67 -3 3 -32z m1443 -999 c16 -15 29 -35 29 -43 0 -9 6 -27 13 -41 23 -44 27 -71 11 -77 -8 -3 -20 -1 -27 4 -15 12 -130 49 -172 57 -16 2 -47 7 -67 11 l-37 6 22 26 c23 27 45 50 70 69 40 33 118 27 158 -12z m-2431 -52 c54 -9 218 -8 282 1 50 7 57 6 52 -7 -3 -8 -19 -18 -35 -21 -37 -8 -58 -38 -51 -73 l6 -27 6 30 c4 21 12 31 28 33 12 2 20 8 17 13 -4 5 -1 9 4 9 6 0 11 -6 11 -14 0 -19 22 -26 83 -27 29 0 84 -6 122 -13 67 -13 71 -12 87 8 l18 21 0 -27 c0 -17 5 -27 13 -25 12 2 14 -41 6 -132 -2 -21 2 -36 9 -39 7 -2 12 -12 12 -22 0 -10 5 -22 10 -25 6 -4 8 -10 6 -13 -4 -8 8 -238 20 -372 6 -66 5 -73 -8 -62 -9 7 -23 10 -31 6 -24 -9 -86 15 -98 38 -14 26 3 68 28 68 16 1 15 3 -4 19 -28 24 -29 51 -3 84 11 14 20 31 20 39 0 7 7 22 15 32 18 23 19 36 4 36 -5 0 -16 -15 -24 -32 -7 -18 -25 -44 -39 -57 -26 -24 -26 -24 -26 -3 0 25 -31 47 -80 57 -19 4 -45 13 -56 21 -27 16 -144 44 -189 44 -44 0 -56 -30 -28 -69 19 -25 36 -89 33 -121 -1 -8 -2 -27 -2 -42 0 -16 -5 -28 -9 -28 -5 0 -6 -7 -3 -15 4 -8 10 -12 15 -9 5 3 9 -4 9 -15 0 -16 -6 -21 -25 -21 -18 0 -25 -5 -25 -18 0 -15 -8 -19 -37 -20 -20 -1 -39 -6 -42 -11 -3 -4 -22 -12 -41 -16 -19 -4 -41 -12 -48 -17 -20 -17 -101 0 -160 33 -29 16 -64 29 -76 27 -12 -1 -35 7 -51 18 -17 11 -38 24 -47 27 -11 4 -15 12 -12 22 4 10 0 15 -15 15 -20 0 -26 5 -57 45 -9 11 -12 14 -8 6 4 -8 2 -12 -5 -10 -7 3 -11 7 -9 11 2 3 -5 15 -15 25 -9 11 -14 23 -10 27 4 4 0 4 -10 0 -20 -7 -22 5 -5 40 9 21 8 29 -5 44 -10 10 -17 24 -17 30 0 7 -4 12 -9 12 -5 0 -14 14 -21 30 -7 17 -17 30 -22 30 -17 0 1 54 25 75 28 26 67 75 67 86 0 4 -20 23 -44 42 l-45 34 22 30 c22 32 82 73 151 105 85 40 233 52 366 30z"/>
</g>
</svg>