<svg xmlns="http://www.w3.org/2000/svg" version="1.0" width="736.000000pt" height="1313.000000pt" viewBox="0 0 736.000000 1313.000000" preserveAspectRatio="xMidYMid meet">
<metadata>
Created by potrace 1.16, written by Peter Selinger 2001-2019
</metadata>
<g transform="translate(0.000000,1313.000000) scale(0.100000,-0.100000)" fill="#000000" stroke="none">
<path d="M4640 11025 c0 -3 19 -14 43 -24 23 -10 68 -35 99 -55 31 -20 64 -36 72 -36 13 0 80 -26 96 -38 2 -2 -2 -8 -10 -13 -13 -9 -12 -10 2 -5 10 3 20 1 23 -3 5 -9 88 -26 113 -24 6 0 12 -3 12 -8 0 -5 9 -9 20 -9 11 0 28 -4 38 -9 9 -5 35 -14 57 -21 22 -7 83 -31 135 -55 108 -48 330 -128 338 -121 2 3 11 -2 19 -10 11 -10 26 -13 47 -9 24 5 28 4 16 -5 -12 -9 -10 -10 10 -9 14 1 39 1 55 0 25 -2 27 -4 10 -10 -16 -7 -13 -9 19 -15 21 -4 41 -5 44 -2 3 3 -3 6 -13 6 -10 0 -16 2 -13 5 3 3 20 2 38 -2 28 -5 30 -8 15 -13 -14 -5 -8 -9 24 -14 24 -4 78 -17 120 -31 251 -78 291 -87 291 -60 0 11 -11 15 -37 16 -34 0 -92 16 -68 18 26 3 -26 21 -75 27 -30 3 -66 12 -80 20 -14 7 -38 16 -55 20 l-30 8 33 4 c38 4 240 -24 278 -38 14 -6 63 -10 108 -10 80 0 127 -12 201 -52 16 -8 18 -8 8 3 -27 27 -15 37 40 32 56 -5 87 -25 87 -55 0 -15 -5 -17 -27 -12 -16 4 -31 12 -35 17 -4 7 -12 6 -22 -2 -21 -17 -20 -31 2 -47 9 -7 18 -25 19 -41 8 -103 62 -350 74 -338 6 6 -14 138 -30 201 -24 94 -34 207 -17 201 6 -2 11 -10 11 -17 0 -7 9 -18 20 -24 28 -15 27 -14 64 -128 18 -57 37 -110 41 -119 5 -9 12 -33 15 -53 4 -20 12 -33 17 -30 6 4 9 -8 8 -27 -4 -62 0 -90 10 -84 15 9 12 71 -5 112 -8 19 -15 48 -15 64 0 15 -4 30 -9 34 -23 14 -51 137 -36 154 8 7 56 -55 76 -98 15 -32 20 -58 17 -97 -2 -37 1 -54 9 -54 13 0 19 -25 28 -117 4 -35 11 -63 17 -63 6 0 8 56 6 150 -1 82 -6 150 -10 150 -4 0 -24 31 -43 70 -23 46 -30 67 -20 64 8 -4 15 -1 15 5 0 6 -4 11 -8 11 -15 0 -157 138 -150 146 4 4 3 13 -4 21 -6 7 -9 15 -6 18 4 4 84 -18 130 -36 33 -13 45 -49 17 -49 -17 0 -18 -3 -8 -21 6 -12 14 -18 18 -13 3 5 14 15 23 23 16 12 19 10 28 -15 6 -15 13 -59 16 -98 2 -39 8 -74 13 -79 17 -17 23 60 11 131 -15 88 -54 147 -108 161 -63 17 -202 25 -202 12 0 -12 -68 -15 -121 -4 -33 7 -33 7 -9 13 16 5 -7 9 -65 14 -106 8 -203 22 -300 41 -38 8 -117 22 -175 31 -101 15 -255 51 -314 74 -16 6 -31 8 -34 5 -3 -3 1 -5 8 -5 7 0 11 -2 8 -5 -18 -18 -331 69 -461 129 -39 18 -85 36 -102 40 l-30 7 30 -25 30 -24 -65 22 c-87 31 -92 33 -190 76 -130 58 -172 78 -215 105 -37 23 -75 33 -75 20z"/>
<path d="M4387 10877 c-15 -29 -27 -66 -26 -82 0 -17 3 -24 6 -17 2 6 8 12 12 12 9 0 -5 -98 -24 -162 -8 -27 -19 -87 -26 -135 -13 -100 -39 -170 -76 -205 l-26 -23 7 28 c6 27 6 27 -12 9 -11 -11 -25 -21 -33 -24 -7 -2 -9 -9 -5 -17 5 -7 15 -10 24 -6 16 6 -14 -34 -47 -62 -26 -22 -35 -14 -13 10 12 13 19 27 15 31 -5 4 -3 6 3 4 11 -3 14 1 14 17 0 3 -18 -4 -40 -15 -36 -18 -39 -23 -29 -41 6 -11 8 -23 6 -26 -3 -2 -53 -5 -111 -6 -87 -2 -103 0 -89 11 14 10 11 12 -23 11 -46 0 -133 -33 -116 -43 7 -4 70 -7 141 -8 104 -1 128 -4 124 -15 -3 -7 -13 -13 -23 -13 -20 0 -36 -17 -26 -28 19 -19 133 9 120 29 -5 9 105 99 117 96 4 -1 28 19 53 46 57 59 72 108 91 292 23 208 33 286 44 324 18 60 -2 65 -32 8z"/>
<path d="M4785 10825 c-16 -7 -54 -38 -82 -68 -51 -53 -61 -68 -45 -66 18 3 20 -3 11 -30 -6 -16 -19 -31 -30 -34 -18 -5 -29 -47 -11 -47 4 0 7 -62 6 -137 -1 -76 3 -146 8 -155 6 -13 1 -24 -19 -44 -26 -25 -27 -25 -4 -14 21 11 26 10 38 -6 12 -16 14 -15 25 16 l11 34 39 -43 c21 -24 38 -54 38 -67 0 -12 5 -26 11 -30 7 -4 9 -24 6 -50 -5 -47 7 -59 19 -21 10 30 5 72 -12 105 -16 30 -19 72 -5 72 14 0 41 -64 47 -113 9 -66 -1 -97 -31 -97 -13 0 -26 -4 -30 -9 -3 -5 -19 -12 -35 -16 -17 -4 -27 -11 -24 -16 3 -6 -6 -9 -22 -7 -15 2 -29 -2 -31 -9 -5 -14 105 9 182 38 60 23 69 23 61 4 -7 -20 -6 -19 34 10 l34 25 18 -32 17 -33 7 33 c7 36 18 41 33 15 6 -10 11 -12 11 -5 0 23 42 12 71 -20 35 -37 29 -43 -46 -54 -27 -3 -90 -15 -139 -24 -49 -10 -95 -16 -102 -13 -7 2 -21 0 -31 -5 -32 -18 29 -25 118 -13 79 11 105 8 94 -9 -3 -4 3 -10 13 -12 15 -4 18 -1 14 18 -4 20 0 24 21 24 13 0 39 3 57 7 28 5 32 4 27 -10 -4 -11 -1 -17 7 -17 17 0 51 -38 43 -47 -4 -3 0 -17 8 -29 14 -22 11 -54 -4 -54 -4 0 -24 18 -45 40 -31 34 -43 40 -76 40 -21 0 -41 -4 -45 -9 -3 -5 -19 -12 -35 -16 -60 -13 -40 -25 32 -19 l74 7 63 -44 c35 -24 70 -53 78 -65 18 -28 39 -151 42 -245 1 -41 9 -105 17 -143 8 -38 12 -71 10 -73 -5 -5 -29 36 -32 55 -4 22 -14 27 -14 8 0 -10 11 -36 24 -59 24 -41 60 -130 86 -212 21 -68 183 -327 242 -390 16 -16 36 -42 46 -57 9 -16 20 -28 24 -28 5 0 23 -24 42 -52 18 -29 46 -66 62 -81 30 -30 35 -65 20 -138 -7 -29 -5 -37 8 -42 13 -5 15 -2 10 18 -5 20 -3 24 10 19 9 -3 16 -10 16 -15 0 -5 5 -9 10 -9 6 0 6 7 -1 19 -7 11 -9 26 -4 37 6 15 11 9 20 -31 7 -27 18 -63 24 -78 14 -36 6 -70 -32 -132 -39 -63 -36 -59 -43 -52 -4 4 1 27 11 52 15 42 16 49 2 78 -9 18 -18 43 -22 57 -3 14 -15 31 -25 38 -19 12 -19 11 -2 -26 9 -20 20 -39 24 -42 6 -5 -12 -84 -39 -172 -3 -10 0 -18 6 -18 6 0 11 -5 11 -11 0 -13 -82 -182 -92 -189 -3 -3 -14 -24 -23 -48 -10 -23 -20 -42 -24 -42 -4 0 -15 -16 -24 -35 -9 -19 -15 -35 -13 -35 9 0 123 165 130 187 4 11 14 27 23 35 14 11 15 10 7 -12 -5 -14 -9 -52 -9 -85 -1 -39 -9 -77 -23 -108 -12 -27 -22 -53 -22 -58 0 -20 -61 -142 -129 -258 -39 -67 -71 -128 -71 -134 0 -24 -59 -178 -85 -224 -89 -156 -256 -500 -280 -578 -42 -136 -47 -147 -58 -136 -13 13 -49 -32 -42 -52 7 -17 -31 -117 -50 -131 -8 -6 -19 -35 -25 -65 -9 -50 -103 -243 -137 -282 -7 -9 -16 -27 -19 -40 -2 -13 -9 -46 -14 -73 -6 -27 -23 -70 -38 -95 -41 -68 -103 -219 -104 -252 -1 -17 -6 -33 -11 -36 -6 -4 -8 0 -4 10 3 8 0 20 -7 26 -19 16 -26 3 -15 -26 7 -20 3 -37 -22 -87 -33 -65 -65 -106 -84 -106 -6 0 -27 -16 -46 -36 -18 -20 -47 -42 -62 -50 -16 -9 -25 -20 -21 -26 4 -7 3 -8 -5 -4 -6 4 -19 -1 -29 -13 -10 -12 -44 -27 -82 -37 -36 -9 -76 -22 -90 -29 -31 -15 -200 -44 -335 -56 -55 -5 -120 -12 -145 -15 -25 -3 -63 -1 -85 4 l-40 10 38 1 c72 2 36 17 -70 29 -147 17 -169 21 -201 38 -15 7 -34 14 -42 14 -8 0 -22 16 -31 35 -16 35 -16 35 7 41 13 3 24 10 24 14 0 5 19 11 43 15 23 4 70 19 105 32 35 14 66 23 69 19 10 -10 -126 -68 -173 -74 -24 -2 -44 -9 -44 -13 0 -26 155 10 212 49 65 45 166 165 233 278 32 54 61 101 64 104 3 3 6 10 6 15 0 6 18 45 39 87 29 59 39 93 43 145 3 37 10 73 14 79 5 6 12 45 15 87 7 75 6 76 -28 124 -20 26 -43 65 -52 85 -18 37 -56 66 -41 31 4 -10 10 -31 12 -48 3 -27 2 -26 -17 13 -20 40 -40 55 -40 30 0 -7 -12 1 -26 17 -18 21 -23 24 -18 10 3 -11 6 -28 6 -37 0 -10 5 -15 13 -12 14 6 45 -32 45 -55 0 -8 -9 -3 -21 13 -35 45 -54 7 -25 -51 29 -56 49 -113 43 -119 -3 -4 -20 5 -37 20 -17 14 -37 26 -43 26 -6 0 0 -8 13 -17 14 -9 27 -18 29 -19 1 -1 -6 -12 -17 -24 l-20 -22 -56 41 c-60 44 -71 49 -62 26 3 -9 0 -15 -7 -15 -18 0 -171 53 -229 79 -44 20 -239 81 -255 81 -19 -1 65 -39 100 -45 20 -4 37 -10 37 -15 0 -4 13 -10 29 -13 16 -3 46 -18 66 -32 l38 -25 -40 0 c-21 0 -45 -6 -51 -12 -10 -10 -15 -10 -21 1 -5 8 -11 9 -15 3 -3 -5 -39 -9 -80 -9 -60 1 -73 4 -64 14 8 10 7 12 -5 7 -8 -3 -46 -9 -84 -12 -55 -6 -70 -11 -77 -27 -8 -20 -17 -21 -126 -20 l-117 0 44 34 c23 18 43 35 43 37 0 2 -29 -15 -64 -37 -48 -30 -70 -38 -89 -34 -23 6 -28 2 -50 -47 -14 -29 -28 -60 -31 -68 -3 -8 -4 18 -2 57 3 61 7 76 26 91 24 20 36 52 18 52 -6 0 -8 -6 -5 -14 5 -14 -21 -32 -30 -22 -5 5 29 129 47 172 10 25 64 37 94 21 19 -9 18 -11 -10 -35 l-29 -24 35 20 c88 50 127 55 372 50 176 -4 232 -2 246 8 16 11 31 10 88 -2 38 -9 80 -18 94 -21 24 -4 24 -4 5 12 -36 29 -89 33 -384 31 -161 -2 -287 0 -280 5 27 14 142 49 149 44 4 -3 30 2 56 10 51 15 224 21 224 7 0 -4 37 -17 83 -27 60 -15 122 -20 235 -21 83 -1 152 2 152 6 0 22 -37 28 -179 28 -84 1 -156 3 -159 6 -15 16 22 21 141 19 l132 -3 -27 24 c-19 17 -47 26 -110 35 -45 7 -99 14 -118 17 -26 4 -31 3 -20 -5 11 -8 2 -11 -37 -11 -28 0 -55 5 -58 10 -8 13 -108 13 -172 1 -26 -5 -75 -14 -108 -20 -181 -33 -317 -63 -347 -76 -22 -9 -40 -25 -48 -45 -7 -16 -18 -30 -25 -30 -25 0 -43 -30 -65 -103 -12 -39 -24 -76 -25 -82 -2 -5 -4 9 -4 33 -1 24 4 52 9 63 7 12 7 19 1 19 -12 0 -31 -89 -42 -200 -5 -47 -12 -101 -15 -122 -10 -58 19 -133 107 -278 45 -74 90 -151 100 -170 41 -81 93 -134 162 -169 37 -18 64 -37 61 -42 -7 -11 28 -25 117 -45 38 -9 69 -19 69 -23 0 -6 93 -31 118 -31 10 0 10 5 1 22 -12 22 -11 22 10 8 12 -8 23 -19 24 -25 5 -26 -261 -133 -290 -116 -12 6 -6 10 23 16 22 4 33 10 26 12 -6 3 -10 9 -6 14 8 13 -3 11 -18 -4 -7 -8 -45 -24 -83 -37 -39 -12 -75 -27 -82 -32 -46 -37 -261 62 -277 127 -4 15 -11 22 -20 19 -16 -6 -126 95 -218 201 -34 39 -65 69 -70 68 -4 -2 -8 3 -8 11 0 8 -18 35 -39 61 -37 45 -71 128 -57 142 3 3 0 13 -8 22 -23 26 -46 162 -46 274 0 100 1 105 22 111 18 5 20 8 9 15 -8 5 -20 7 -28 4 -10 -4 -13 7 -15 43 0 27 0 56 1 64 2 8 5 30 8 49 3 18 2 36 -3 40 -5 3 -20 27 -33 54 -13 26 -48 79 -78 117 -29 39 -53 72 -53 75 0 12 35 4 52 -12 10 -9 21 -14 24 -10 7 7 -53 97 -65 97 -5 0 -11 9 -14 20 -4 15 -14 20 -36 20 -23 0 -48 16 -111 71 -44 39 -79 74 -76 76 5 5 85 -54 139 -103 16 -14 32 -22 35 -18 4 4 1 9 -6 11 -6 3 -10 9 -7 14 4 5 -2 6 -12 2 -10 -3 -15 -3 -11 2 11 11 -44 72 -145 159 -65 58 -105 103 -158 184 -40 59 -84 121 -100 137 -39 42 -71 144 -75 240 -3 55 -1 74 5 60 6 -13 9 -15 9 -5 0 21 -16 68 -17 53 -2 -24 -19 -13 -30 18 -16 45 -14 57 5 31 8 -12 20 -20 25 -17 17 11 9 41 -15 62 -22 19 -23 24 -14 74 13 72 18 74 18 6 0 -31 4 -57 8 -57 14 0 17 43 14 164 -2 65 -5 77 -17 72 -8 -3 -15 -1 -15 4 0 6 4 10 9 10 4 0 8 42 9 93 0 50 5 121 11 156 7 43 7 69 0 80 -8 13 -9 11 -4 -7 5 -15 3 -22 -6 -20 -8 2 -15 -10 -19 -30 -3 -18 -8 -33 -12 -32 -5 0 -12 0 -18 0 -12 0 -12 97 0 125 7 17 9 17 9 3 2 -49 41 21 41 72 0 25 31 161 57 246 27 90 77 185 95 181 7 -1 14 9 16 23 3 21 2 22 -12 11 -19 -16 -34 -7 -18 11 5 7 29 60 52 118 41 103 152 332 173 359 6 7 12 39 13 70 2 42 9 67 27 94 13 20 28 33 32 29 5 -4 5 -2 2 5 -4 6 -4 13 0 16 10 5 -12 -1 -34 -10 -14 -5 -14 -2 3 26 26 45 132 144 168 157 16 5 36 21 45 34 l16 24 -26 -17 c-14 -9 -29 -14 -32 -10 -4 3 -7 2 -7 -4 0 -6 -7 -14 -16 -17 -14 -5 -16 -1 -10 26 3 17 13 40 22 50 9 9 14 26 11 37 -4 16 5 23 50 40 30 12 65 21 77 21 26 0 70 54 62 75 -6 18 11 24 50 18 18 -3 35 0 39 7 4 7 2 10 -7 8 -17 -4 -88 38 -88 52 0 10 30 13 115 12 66 -1 67 -1 61 -18 -5 -13 5 -14 82 -8 48 4 89 8 91 10 10 9 -14 24 -38 24 -36 0 -45 10 -23 26 16 12 16 14 -5 29 -13 9 -20 22 -16 31 4 12 0 14 -20 9 -14 -4 -28 -2 -32 4 -3 6 -10 9 -15 6 -4 -3 -17 14 -28 38 -11 23 -54 98 -96 165 -42 68 -76 128 -76 134 0 5 -4 7 -9 4 -5 -4 -11 0 -14 6 -2 7 -8 10 -12 6 -12 -11 45 -119 135 -256 68 -102 84 -122 101 -117 13 4 19 2 19 -9 0 -9 7 -16 15 -16 8 0 15 -4 15 -10 0 -15 -16 -12 -30 5 -9 11 -16 13 -24 5 -7 -7 -4 -14 10 -25 28 -21 10 -18 -30 6 -45 26 -160 217 -217 359 -15 38 -110 194 -136 222 -9 10 -22 18 -30 18 -8 0 -11 5 -7 12 4 6 3 8 -4 4 -6 -3 -13 2 -17 13 -5 17 -35 38 -35 25 0 -14 65 -72 73 -67 6 4 8 0 4 -9 -3 -9 6 -32 20 -53 14 -21 37 -65 50 -98 52 -127 165 -334 225 -410 32 -40 34 -61 3 -27 -10 11 -24 20 -30 20 -7 0 -18 7 -25 15 -7 8 -17 15 -23 15 -6 0 1 -13 16 -28 34 -35 34 -42 -1 -42 -30 0 -72 36 -72 61 0 9 -14 28 -30 44 -33 32 -38 45 -15 45 21 0 19 16 -6 39 -23 21 -34 71 -16 71 6 0 22 -10 35 -22 l25 -23 -14 25 c-8 13 -24 35 -37 50 -13 14 -33 41 -44 60 -12 19 -24 37 -28 40 -3 3 -14 22 -25 43 -24 46 -32 52 -49 37 -11 -8 -15 -8 -19 2 -4 10 -6 10 -6 0 -1 -8 7 -16 18 -19 17 -4 47 -51 38 -59 -2 -2 -16 7 -31 21 -15 14 -33 25 -41 25 -8 0 -46 -29 -83 -65 -38 -35 -71 -62 -74 -59 -8 7 -98 -111 -98 -128 0 -8 -5 -19 -12 -26 -13 -13 -8 -24 8 -14 5 4 39 43 74 87 36 44 68 82 73 84 5 2 26 21 47 42 43 43 55 46 88 23 28 -20 74 -108 66 -128 -7 -19 -20 -20 -63 -5 -34 12 -39 32 -16 63 21 28 19 39 -5 26 -11 -6 -26 -8 -33 -5 -6 4 -4 0 5 -7 10 -9 14 -19 8 -28 -7 -11 -12 -10 -26 5 -17 17 -18 17 -27 -9 -6 -18 -16 -26 -31 -26 -22 0 -57 -30 -69 -60 -4 -8 -23 -37 -42 -64 -34 -47 -40 -71 -12 -48 8 7 18 7 27 2 10 -6 11 -10 3 -10 -13 0 -53 -39 -53 -52 0 -19 32 -6 64 27 20 19 44 35 56 35 11 0 20 -2 20 -3 0 -2 -33 -26 -72 -53 -40 -27 -76 -53 -80 -59 -15 -21 -16 3 -2 44 8 24 13 45 11 48 -5 4 -86 -109 -107 -147 -9 -18 -8 -20 15 -20 29 0 31 -7 11 -29 -12 -13 -21 -80 -17 -127 1 -16 49 -24 55 -9 5 15 125 89 132 83 2 -3 -41 -44 -96 -92 -55 -48 -100 -91 -100 -97 0 -21 30 -7 62 29 36 40 96 87 103 80 2 -2 -13 -22 -33 -45 -20 -24 -47 -54 -60 -69 -12 -14 -22 -35 -22 -46 0 -17 7 -13 41 23 22 24 35 34 29 22 -5 -12 -16 -26 -24 -30 -7 -4 -22 -24 -32 -43 l-19 -35 -3 43 c-2 23 -6 42 -10 42 -13 0 -53 -80 -46 -92 4 -6 3 -8 -3 -5 -17 11 -31 -15 -31 -55 0 -20 -7 -47 -15 -59 -18 -25 -12 -49 12 -49 14 -1 14 -2 -1 -14 -11 -8 -18 -26 -18 -45 0 -51 -22 -195 -66 -431 -8 -47 -21 -92 -29 -100 -7 -8 -18 -33 -25 -55 -7 -22 -23 -65 -36 -95 -44 -103 -95 -336 -63 -290 15 21 4 -32 -32 -158 -32 -111 -123 -334 -145 -357 -8 -7 -14 -16 -14 -20 0 -4 -6 -13 -12 -20 -7 -7 -29 -37 -48 -65 -19 -29 -56 -77 -82 -106 -27 -30 -48 -59 -48 -65 0 -10 -77 -119 -85 -119 -2 0 -13 10 -25 22 l-20 22 0 -27 c0 -34 -13 -35 -28 -2 -15 33 -15 62 -1 67 8 3 7 20 -5 61 -21 71 -37 151 -41 199 -1 23 -23 73 -59 134 -31 54 -61 116 -66 139 -5 23 -16 54 -25 71 -8 16 -15 35 -15 42 0 7 -13 37 -30 66 -16 30 -34 71 -39 92 -5 22 -25 95 -45 163 -40 138 -52 198 -66 327 -6 49 -17 132 -25 184 l-14 95 5 -160 c3 -88 7 -178 10 -200 l5 -40 -27 47 c-29 51 -45 59 -21 11 32 -63 152 -422 143 -430 -3 -4 -8 7 -96 227 -34 85 -92 210 -128 278 -62 115 -92 148 -92 102 0 -11 5 -20 11 -20 19 0 109 -224 124 -309 3 -19 12 -39 19 -45 8 -6 17 -22 20 -36 l7 -25 -15 25 -15 25 -1 -25 c0 -20 -7 -13 -39 39 -22 35 -46 78 -52 95 -7 17 -19 35 -27 39 -7 5 -17 18 -22 30 -8 20 -9 20 -9 -7 -1 -44 51 -310 62 -317 5 -4 7 -14 4 -23 -4 -9 -3 -16 2 -16 5 0 18 -28 31 -62 28 -78 62 -156 101 -229 16 -31 29 -64 29 -74 0 -9 14 -46 31 -82 28 -58 30 -69 21 -106 -11 -46 -3 -118 17 -157 39 -72 143 -184 236 -253 217 -160 485 -390 471 -405 -4 -3 -117 89 -156 128 -3 3 -18 16 -35 30 -21 18 -25 20 -15 5 8 -11 24 -28 35 -37 11 -10 15 -17 10 -18 -6 0 -17 6 -25 13 -8 6 -6 2 4 -10 20 -24 43 -32 30 -11 -4 7 -3 8 5 4 6 -4 9 -11 6 -16 -7 -12 55 -61 67 -54 7 4 8 2 4 -4 -4 -7 10 -20 35 -33 23 -11 63 -40 88 -63 25 -23 64 -53 86 -66 47 -28 135 -102 225 -192 71 -70 186 -170 237 -207 26 -18 32 -19 26 -5 -17 44 72 -33 139 -121 25 -33 55 -69 67 -79 23 -21 28 -38 8 -35 -6 1 -25 1 -42 0 -27 -2 -25 -4 23 -23 64 -25 80 -59 41 -89 l-24 -19 30 -1 c17 -1 40 -1 52 0 12 1 24 -3 28 -9 4 -6 -4 -10 -19 -10 -31 0 -56 -10 -56 -22 0 -5 19 -9 43 -8 96 4 91 8 83 -61 -3 -34 -11 -68 -17 -75 -7 -9 -7 -19 0 -33 13 -24 14 -41 2 -41 -5 0 -14 13 -20 29 -11 25 -81 103 -81 90 0 -7 33 -70 61 -114 32 -51 52 -115 36 -115 -7 0 -7 -4 2 -9 22 -14 6 -39 -22 -34 -14 3 -28 0 -31 -6 -4 -6 -26 -11 -49 -11 -46 0 -120 -20 -164 -44 -37 -20 -29 -20 70 3 45 11 113 23 150 26 l67 7 15 -36 c17 -41 20 -76 5 -76 -5 0 -10 -9 -10 -20 0 -11 6 -20 14 -20 7 0 27 -30 44 -67 38 -81 64 -126 101 -173 15 -19 35 -49 44 -66 9 -17 34 -47 56 -67 23 -20 40 -43 39 -49 -2 -8 6 -12 21 -10 15 1 44 -13 80 -40 31 -24 63 -47 72 -53 8 -5 49 -32 90 -59 150 -99 176 -114 259 -154 80 -39 156 -95 299 -220 34 -30 61 -49 61 -43 0 18 22 13 47 -11 13 -12 26 -19 29 -15 8 7 -35 46 -51 47 -6 0 -49 39 -95 86 -96 98 -85 96 81 -12 55 -35 121 -74 147 -86 41 -20 182 -145 182 -162 0 -4 -45 16 -100 45 -56 28 -103 49 -106 46 -9 -8 40 -37 256 -150 47 -25 108 -62 136 -83 84 -64 191 -167 205 -196 7 -16 18 -28 26 -28 24 0 62 -31 97 -79 19 -25 93 -98 166 -161 72 -63 172 -151 221 -195 95 -84 162 -127 186 -118 8 3 13 7 11 8 -2 2 -31 24 -65 49 -40 29 -74 64 -94 98 -17 29 -28 45 -25 36 8 -26 -9 -22 -42 9 -16 16 -46 44 -67 63 -37 34 -75 86 -75 104 0 5 9 1 20 -9 40 -36 18 4 -39 72 -33 39 -67 86 -77 104 -9 19 -26 40 -37 48 -18 13 -19 23 -15 115 4 78 10 111 27 144 24 47 41 140 20 112 -8 -11 -9 -3 -6 35 6 61 78 203 205 404 12 20 32 56 43 81 57 125 168 334 175 327 2 -2 -10 -30 -28 -63 -74 -141 -89 -176 -83 -194 4 -12 -1 -23 -16 -33 -16 -12 -19 -19 -11 -33 8 -14 25 13 89 142 44 87 101 200 126 249 26 50 89 176 140 281 105 214 226 401 368 568 86 102 114 125 204 171 25 12 41 25 38 29 -4 4 -2 11 6 15 10 6 9 10 -4 14 -10 5 -14 3 -9 -4 4 -7 1 -10 -7 -7 -8 3 -30 -6 -49 -19 -19 -13 -36 -19 -38 -13 -2 6 -24 -8 -49 -30 -25 -22 -51 -40 -58 -40 -7 0 -18 -7 -25 -15 -18 -21 -44 -20 -36 3 4 9 -8 -1 -26 -23 -18 -22 -57 -67 -88 -99 -61 -65 -42 -62 34 5 63 55 47 22 -32 -69 -30 -35 -52 -66 -48 -69 3 -3 -17 -35 -45 -70 -28 -35 -63 -87 -78 -116 -59 -110 -91 -163 -116 -192 -24 -29 -5 13 83 180 12 22 30 60 42 83 11 24 34 55 50 69 37 31 40 52 4 28 -15 -9 -25 -13 -22 -8 46 102 71 144 106 175 46 41 53 55 22 38 -28 -15 -26 -3 17 87 20 43 36 86 35 95 -1 10 4 41 12 70 10 41 18 54 35 56 12 2 34 15 48 28 19 17 21 23 8 18 -16 -7 -17 -4 -12 25 24 116 341 748 541 1076 47 77 107 177 133 223 43 74 143 231 280 441 26 41 64 94 84 118 20 24 46 61 58 83 20 36 20 39 4 33 -10 -3 -31 -19 -47 -35 -16 -16 -31 -27 -33 -24 -10 9 74 159 155 279 160 235 272 422 272 451 0 8 11 28 25 44 14 17 25 36 25 43 0 7 -16 -11 -35 -41 -19 -30 -35 -60 -35 -67 0 -7 -10 -17 -21 -24 -19 -10 -16 0 19 64 46 86 148 243 173 269 9 9 20 14 25 10 4 -4 4 -1 0 6 -5 7 -2 21 6 30 8 9 25 45 37 79 12 35 38 90 57 124 42 76 70 174 60 215 l-8 29 -11 -30 c-7 -16 -21 -45 -32 -64 -27 -44 -154 -201 -164 -201 -4 0 -25 -31 -45 -69 -40 -72 -105 -160 -120 -161 -4 0 -5 7 -2 16 14 35 18 64 9 64 -5 0 -19 -31 -31 -68 -24 -76 -73 -159 -99 -170 -10 -4 -19 -14 -21 -22 -2 -8 -28 -53 -57 -100 -63 -100 -139 -288 -165 -409 -22 -100 -45 -161 -63 -161 -21 0 -115 98 -128 135 -7 19 -19 35 -26 35 -19 0 -35 38 -28 69 6 26 -9 55 -52 99 -7 7 -13 20 -13 28 0 8 -5 14 -11 14 -5 0 -7 5 -3 12 4 6 3 8 -3 5 -6 -4 -13 6 -17 23 -3 17 -10 30 -15 30 -6 0 -4 -18 4 -41 22 -62 18 -60 -21 10 -33 60 -39 99 -8 57 13 -19 14 -18 14 12 0 20 -7 35 -18 41 -10 5 -18 20 -19 33 -1 12 -7 24 -13 26 -5 2 -10 11 -10 20 0 14 -2 15 -10 2 -5 -8 -11 -12 -14 -10 -9 10 -226 429 -242 469 -9 23 -18 40 -20 38 -6 -6 32 -98 91 -220 31 -65 54 -121 52 -124 -7 -7 -31 40 -116 233 -39 89 -71 169 -71 178 0 9 -4 16 -9 16 -5 0 -15 17 -22 37 -7 21 -20 51 -30 68 -11 16 -19 38 -19 48 0 17 1 17 16 2 11 -11 20 -13 27 -6 11 11 1 45 -12 37 -5 -3 -8 0 -7 7 0 6 -14 57 -32 112 -18 55 -52 164 -75 241 -24 78 -50 152 -59 165 -15 24 -15 23 -13 -16 2 -22 14 -67 27 -100 14 -33 33 -92 43 -132 10 -40 22 -70 25 -68 8 5 30 -62 30 -89 0 -9 5 -16 11 -16 5 0 8 -4 5 -9 -3 -5 1 -26 10 -47 l16 -39 -25 23 c-48 45 -140 257 -152 350 -2 19 -7 43 -10 53 -4 11 -2 19 4 19 17 0 13 30 -4 36 -8 4 -15 14 -15 24 0 11 -4 21 -9 25 -6 3 -24 30 -41 60 -29 51 -33 54 -63 48 -18 -3 -34 -8 -37 -10 -3 -3 12 -19 33 -37 36 -30 38 -34 26 -59 -7 -15 -20 -27 -31 -27 -12 0 -18 -7 -18 -21 0 -16 -3 -19 -12 -11 -8 7 -13 37 -13 84 0 53 -4 76 -15 85 -12 10 1 12 66 13 73 0 82 -2 90 -21 9 -20 11 -20 26 -6 14 15 17 14 33 -3 10 -11 22 -20 27 -20 11 0 10 38 -2 45 -10 6 -50 78 -50 90 0 18 24 -2 51 -42 19 -30 28 -39 23 -23 -11 40 -52 118 -67 127 -8 4 -20 19 -26 31 -20 37 -82 102 -92 96 -5 -3 -24 6 -41 19 -18 14 -50 30 -70 37 -25 7 -38 18 -38 29 0 10 -15 24 -35 34 -20 9 -40 28 -45 42 -11 28 -21 29 -65 10z m71 -117 c24 -23 52 -54 62 -70 9 -15 20 -28 25 -28 5 0 23 -12 39 -26 52 -43 51 -11 -2 46 -28 30 -50 58 -50 62 0 13 33 -4 82 -42 34 -27 44 -40 36 -48 -8 -8 -8 -15 2 -27 18 -21 11 -25 -54 -30 -56 -5 -56 -4 -70 30 -15 36 -33 43 -121 49 l-40 2 3 44 c3 43 2 43 -17 26 -10 -10 -22 -29 -26 -43 -7 -30 -35 -63 -35 -41 0 22 29 110 41 124 6 8 27 14 45 14 26 0 45 -10 80 -42z m122 -383 c7 -14 12 -37 12 -51 0 -20 -4 -24 -19 -19 -29 9 -34 -10 -16 -65 19 -58 17 -114 -5 -117 -9 -2 -26 17 -42 47 -34 61 -34 68 -5 72 12 2 22 8 22 13 0 6 -10 11 -22 13 -13 2 -23 -1 -23 -7 0 -6 -4 -11 -10 -11 -5 0 -10 6 -10 14 0 7 -7 19 -15 26 -23 19 -19 26 38 69 61 47 80 50 95 16z m368 -927 c9 -29 20 -55 23 -58 14 -11 52 -112 85 -227 40 -134 45 -169 15 -108 -17 37 -18 38 -19 13 0 -16 -4 -28 -9 -28 -16 0 -70 173 -100 318 -29 144 -27 186 5 90z m-3771 -185 c-14 -34 -37 -129 -65 -265 -16 -75 -35 -149 -44 -165 l-15 -28 -1 57 c0 65 27 245 40 270 5 9 7 31 4 47 -7 32 -2 39 50 79 35 27 40 27 31 5z m-1462 -976 c9 -17 38 -75 62 -127 25 -52 52 -107 60 -122 8 -14 15 -32 15 -40 0 -7 11 -40 24 -73 14 -33 27 -73 31 -89 4 -21 9 -26 14 -17 10 15 43 -26 66 -83 13 -30 13 -35 1 -30 -8 3 -17 15 -20 27 -3 12 -8 19 -11 15 -8 -8 16 -58 29 -59 6 -1 16 -1 23 0 6 1 14 -7 18 -18 3 -11 26 -50 50 -87 29 -44 45 -79 45 -99 0 -17 4 -35 10 -41 16 -16 50 -125 50 -160 0 -18 5 -36 10 -39 6 -3 10 -12 10 -20 0 -11 -6 -12 -31 -3 -23 8 -27 13 -17 19 8 6 9 9 1 9 -10 0 -52 40 -102 98 -11 14 -25 21 -32 17 -8 -5 -9 -1 -5 13 4 13 -4 41 -23 79 -17 32 -31 51 -31 42 0 -8 7 -24 15 -35 16 -21 20 -64 6 -64 -16 0 -71 105 -71 134 0 15 5 36 10 47 8 15 6 30 -10 65 -11 26 -20 52 -20 58 0 6 -13 38 -29 71 -15 33 -36 94 -46 135 -10 41 -26 93 -36 115 -50 115 -61 143 -75 199 -8 34 -17 69 -20 79 -9 29 10 19 29 -16z m1034 -695 c-2 -62 -8 -97 -15 -100 -7 -2 -12 -26 -12 -61 0 -56 -4 -66 -67 -179 -25 -44 -53 -72 -53 -52 0 6 8 24 19 38 10 15 22 38 26 52 4 13 14 30 21 38 8 7 14 25 14 40 -1 26 -2 25 -26 -13 -13 -22 -27 -50 -30 -62 -4 -13 -10 -23 -14 -23 -4 0 -10 -8 -13 -17 -8 -26 -65 -122 -98 -167 -35 -49 -36 -56 -4 -56 29 0 28 2 14 -40 l-12 -32 -26 26 c-43 43 -88 76 -103 76 -16 0 -128 104 -128 119 0 16 36 13 54 -4 19 -19 28 -19 47 3 8 9 32 30 52 47 21 16 54 54 74 85 19 30 48 73 63 95 15 22 57 91 94 153 37 61 73 112 81 112 9 0 15 9 15 21 0 18 2 19 15 9 12 -10 14 -32 12 -108z m-61 -407 c-37 -82 -45 -102 -56 -142 -7 -23 -9 -50 -5 -60 5 -14 12 -7 32 37 l26 55 9 -40 c5 -22 11 -69 14 -105 3 -36 10 -69 15 -74 5 -6 9 -18 9 -28 0 -10 7 -18 15 -18 12 0 15 13 15 60 0 33 3 60 6 60 30 0 45 -100 24 -156 l-11 -28 -23 27 c-13 15 -28 27 -33 27 -5 0 -34 27 -66 60 -58 62 -73 71 -79 46 -3 -13 -6 -13 -23 0 -17 13 -18 19 -8 68 11 51 49 122 83 156 8 8 15 20 15 25 0 6 11 30 25 55 28 53 41 33 16 -25z m203 -361 c36 -77 35 -74 15 -74 -23 0 -11 -24 15 -28 12 -2 29 -16 38 -30 9 -15 39 -53 66 -85 27 -32 47 -61 44 -64 -6 -5 -38 18 -154 112 -34 27 -71 57 -82 65 -20 15 -20 17 -6 84 14 64 22 86 30 86 2 0 17 -30 34 -66z m484 -491 c20 -26 57 -75 81 -108 25 -33 53 -82 62 -110 9 -27 23 -62 31 -77 7 -16 10 -28 5 -28 -13 0 -80 94 -103 144 -11 27 -35 64 -53 84 -51 57 -146 183 -146 194 0 18 88 -52 123 -99z m487 -1186 c0 -7 84 -92 182 -183 83 -78 100 -150 22 -91 -98 72 -176 153 -204 211 -16 34 -43 86 -61 116 l-31 55 46 -50 c25 -27 46 -53 46 -58z m2146 -288 c-3 -17 -15 -43 -26 -59 -11 -15 -20 -33 -20 -39 0 -11 -84 -118 -109 -139 -9 -7 -35 -26 -59 -43 -80 -57 -67 -23 28 71 63 62 86 90 69 85 -13 -4 -40 -20 -60 -36 -19 -15 -48 -31 -63 -35 -16 -4 -64 -26 -107 -50 -44 -24 -83 -44 -87 -44 -4 0 -31 -17 -61 -37 -35 -24 -67 -38 -90 -39 -20 -1 -67 -7 -106 -13 -38 -7 -112 -12 -163 -13 -88 -1 -96 1 -170 37 -125 62 -126 60 42 57 107 -3 160 0 181 9 28 12 23 13 -70 20 -117 8 -219 28 -330 64 -159 51 -155 54 78 55 128 0 206 -4 202 -9 -3 -6 8 -8 27 -5 124 17 162 25 168 34 4 6 68 12 151 15 79 3 172 8 207 11 42 4 62 3 62 -5 0 -13 45 5 75 30 11 9 47 29 80 43 33 14 78 35 100 46 54 26 58 25 51 -11z m-341 -345 c-11 -8 -30 -17 -42 -21 -13 -3 -23 -11 -23 -19 0 -8 -3 -14 -7 -14 -5 0 -19 -10 -33 -21 -21 -17 -22 -19 -3 -10 34 17 43 13 43 -19 0 -16 -4 -30 -9 -30 -5 0 -14 -15 -21 -34 -8 -24 -18 -35 -36 -39 -23 -4 -25 -2 -19 20 12 51 -16 48 -44 -5 -7 -14 -18 -21 -27 -18 -8 3 -14 -1 -14 -9 0 -22 -12 -18 -32 9 -20 27 -15 34 42 56 19 8 39 20 43 27 4 7 14 13 22 13 8 0 17 4 20 10 3 5 0 8 -7 6 -7 -2 -35 -10 -63 -17 -27 -7 -68 -21 -90 -31 -28 -12 -65 -18 -124 -18 -103 0 -97 15 9 24 86 6 119 14 140 31 48 40 220 113 290 124 3 0 -4 -6 -15 -15z"/>
<path d="M1539 10396 c-46 -36 -109 -88 -140 -117 -31 -29 -65 -56 -75 -62 -11 -5 -30 -21 -43 -34 -35 -36 -237 -186 -371 -274 -360 -238 -438 -290 -465 -315 -93 -83 182 84 508 307 137 94 251 168 253 166 5 -5 -106 -98 -242 -202 -42 -33 -107 -84 -143 -113 -169 -137 -376 -299 -406 -319 -40 -27 -52 -43 -31 -43 22 0 98 40 116 60 18 20 162 135 345 275 318 242 416 328 687 602 72 72 105 112 100 121 -6 9 -32 -5 -93 -52z"/>
<path d="M3619 10315 c-86 -12 -289 -72 -401 -119 -21 -9 -40 -16 -43 -16 -9 0 15 22 53 49 39 27 33 50 -6 25 -15 -10 -33 -25 -39 -35 -22 -31 -231 -159 -260 -159 -4 0 8 16 27 35 32 33 33 34 7 22 -15 -6 -30 -21 -33 -32 -10 -28 -77 -91 -82 -76 -5 15 -52 -25 -52 -44 0 -7 -9 -24 -21 -39 -32 -41 -5 -31 29 12 17 20 59 52 94 69 133 68 282 133 295 129 7 -3 15 0 19 6 5 7 2 8 -6 3 -9 -5 -11 -4 -6 4 4 6 15 9 25 6 9 -3 58 4 109 15 50 11 124 21 164 21 40 1 79 6 87 12 12 10 91 35 115 37 5 0 -3 -9 -17 -20 -14 -11 -32 -20 -41 -20 -9 0 -16 -7 -16 -16 0 -11 6 -14 20 -9 11 4 20 2 20 -4 0 -17 73 -13 99 5 17 12 58 19 141 24 65 5 127 13 139 20 12 6 30 13 39 15 34 7 72 25 72 34 0 23 -155 24 -170 1 -3 -4 -21 -10 -40 -11 -42 -5 -54 21 -18 39 19 10 8 12 -62 9 -107 -4 -159 -26 -62 -27 98 0 71 -20 -36 -26 -60 -3 -92 -1 -92 6 0 5 6 10 13 10 19 0 59 39 52 51 -4 5 -9 9 -13 8 -4 -1 -50 -7 -103 -14z"/>
<path d="M2812 10168 c-10 -24 -25 -61 -32 -83 -40 -127 -148 -260 -256 -315 -27 -14 -51 -26 -53 -27 -2 -2 -2 -6 2 -9 3 -3 20 1 39 9 18 8 45 18 60 21 59 13 180 140 205 215 3 9 16 44 29 78 21 53 40 153 29 153 -1 0 -12 -19 -23 -42z"/>
<path d="M4406 8867 c-57 -21 -88 -48 -73 -63 4 -4 18 3 31 15 13 12 35 24 47 26 13 2 38 6 55 10 22 5 33 3 37 -7 3 -9 17 -13 36 -12 17 1 28 -2 25 -7 -3 -5 -23 -9 -44 -9 -21 0 -42 -4 -45 -10 -3 -5 -21 -10 -40 -10 -19 0 -36 -4 -40 -9 -7 -12 96 -11 111 0 32 26 154 59 214 59 55 1 62 2 45 13 -13 8 -64 12 -140 12 -66 1 -129 4 -140 7 -11 4 -46 -3 -79 -15z"/>
<path d="M4790 8568 c-19 -5 -67 -9 -107 -8 -45 0 -74 -3 -79 -11 -5 -9 8 -10 55 -5 33 4 61 5 61 3 0 -3 -27 -15 -61 -27 -51 -19 -64 -29 -77 -59 -9 -20 -27 -49 -39 -64 -13 -16 -23 -32 -23 -37 0 -15 -40 -103 -45 -98 -8 8 51 161 78 206 15 23 23 42 18 42 -12 0 -51 -53 -74 -100 -30 -61 -138 -373 -134 -384 3 -6 10 3 16 19 6 17 20 46 30 65 10 19 24 52 31 73 6 21 14 37 16 34 2 -2 -10 -44 -26 -93 -17 -49 -37 -125 -46 -169 -8 -44 -17 -91 -20 -105 -4 -20 -2 -22 6 -10 8 11 11 -12 9 -90 -2 -134 -4 -128 28 -122 25 5 26 3 20 -27 -4 -20 -3 -31 5 -31 6 0 21 -9 33 -20 13 -12 46 -24 79 -30 32 -5 72 -13 89 -19 49 -14 236 -41 287 -41 56 1 36 15 -33 24 -27 3 -56 11 -65 16 -12 8 12 10 88 6 63 -4 121 -2 145 5 22 6 48 11 57 12 9 1 14 5 12 9 -3 5 22 36 55 71 34 34 68 72 76 85 14 20 14 21 0 16 -20 -8 -19 -7 10 54 14 28 30 73 35 98 6 26 14 52 18 58 18 29 3 139 -28 198 -11 21 -20 48 -20 59 0 17 4 19 23 13 12 -4 38 -8 57 -9 19 -1 52 -7 74 -14 24 -8 41 -10 45 -4 3 6 13 12 21 15 8 2 -12 13 -45 23 -91 28 -109 39 -201 128 -102 98 -144 121 -289 158 -87 23 -122 28 -170 23 -47 -5 -58 -4 -49 6 7 6 28 12 47 13 20 0 34 5 31 9 -6 9 13 10 141 9 l90 -1 -50 14 c-70 19 -163 25 -205 14z m127 -348 c12 -19 31 -47 42 -61 33 -43 35 -56 8 -83 -17 -17 -32 -23 -46 -19 -25 6 -45 38 -37 59 4 11 -7 14 -52 14 -74 0 -97 15 -87 58 10 47 49 74 104 70 39 -3 48 -8 68 -38z m344 -106 c9 -38 18 -62 19 -54 3 21 18 -29 18 -60 1 -23 0 -23 -8 -5 -6 14 -9 4 -9 -36 -1 -95 -48 -204 -119 -276 -30 -31 -48 -43 -61 -38 -10 3 -24 -1 -31 -10 -21 -25 -67 -46 -113 -51 -22 -3 -52 -11 -67 -19 -16 -9 -86 -17 -189 -23 -163 -10 -165 -10 -201 13 -21 13 -40 33 -43 45 -3 12 -2 20 1 18 51 -27 109 -48 130 -48 23 1 20 5 -25 28 -29 15 -69 41 -88 59 -29 26 -35 38 -34 70 0 30 2 34 9 18 6 -14 9 0 9 47 1 69 19 158 32 158 4 0 11 -21 15 -47 10 -72 52 -149 108 -200 28 -25 60 -50 71 -55 11 -5 34 -16 50 -26 69 -38 233 -21 333 35 68 38 95 68 137 153 64 127 71 244 20 364 -6 14 -5 18 6 14 8 -3 21 -35 30 -74z"/>
<path d="M2050 8383 c0 -6 27 -13 61 -17 66 -6 82 -12 74 -27 -9 -13 -103 -11 -107 3 -3 9 -21 8 -71 -5 -72 -17 -199 -94 -203 -123 -2 -14 -39 -48 -54 -49 -31 -3 -72 -23 -116 -58 -58 -46 -72 -68 -24 -41 16 10 27 20 25 23 -5 4 87 39 93 35 2 -2 -24 -29 -58 -61 -56 -53 -61 -60 -46 -72 14 -12 16 -12 10 4 -5 13 -4 16 5 11 7 -5 21 0 32 10 28 26 23 1 -11 -49 -16 -25 -30 -49 -30 -53 0 -5 -9 -20 -19 -33 -10 -14 -17 -31 -14 -39 4 -8 14 1 30 28 14 23 27 40 29 38 8 -8 -68 -214 -86 -232 -27 -28 -35 -14 -16 26 12 24 14 42 8 58 -7 20 -13 11 -36 -62 -15 -47 -36 -94 -47 -104 -10 -9 -17 -19 -14 -22 3 -3 0 -11 -6 -19 -9 -10 -6 -13 15 -13 17 0 25 -4 20 -11 -4 -8 0 -8 15 0 11 7 21 16 21 21 0 20 65 50 108 50 37 0 42 -3 42 -22 0 -38 36 -145 66 -195 l27 -46 -32 22 c-38 28 -61 21 -61 -16 0 -22 11 -37 53 -69 28 -23 65 -43 81 -46 l28 -6 -26 23 c-14 12 -26 26 -26 30 0 5 8 1 18 -8 10 -9 41 -24 70 -33 28 -9 50 -22 49 -28 -1 -6 16 -12 41 -14 51 -4 141 25 229 74 34 19 69 34 78 34 8 0 16 5 16 10 1 6 2 13 3 18 2 12 118 127 126 125 4 -1 15 16 25 37 10 22 24 40 32 40 7 0 13 5 13 11 0 6 7 9 15 5 12 -4 14 0 10 17 -4 21 -31 140 -41 182 -5 20 -5 20 10 1 20 -25 20 -18 -4 99 -10 54 -19 100 -18 104 2 20 -3 31 -12 26 -6 -4 -8 -10 -5 -15 2 -4 7 -43 10 -86 l5 -79 -21 49 c-11 27 -17 56 -14 64 5 14 -70 290 -82 301 -6 6 -3 -6 13 -73 13 -52 -11 -20 -61 81 -49 100 -100 173 -119 173 -6 0 -4 -5 4 -11 11 -8 8 -9 -15 -4 -71 14 -115 17 -115 8z m170 -93 c6 -11 8 -25 5 -30 -3 -5 -1 -11 5 -15 5 -3 10 -11 10 -16 0 -5 -11 -2 -24 8 -13 10 -22 21 -20 24 10 18 -137 -1 -199 -25 -120 -46 -156 -28 -56 28 46 26 68 32 144 37 50 3 98 6 107 7 10 1 22 -7 28 -18z m-181 -394 c7 -8 15 -30 18 -50 10 -66 -48 -116 -135 -116 -66 0 -89 52 -50 110 41 59 138 91 167 56z m-220 -80 c-22 -61 -23 -69 -11 -148 16 -114 56 -192 134 -262 35 -32 82 -64 111 -74 59 -22 51 -32 -32 -39 -74 -7 -126 10 -174 56 -51 47 -74 95 -93 188 -23 108 -4 243 38 285 10 10 18 24 18 31 0 14 21 39 28 32 2 -2 -6 -33 -19 -69z"/>
<path d="M5607 7708 c-8 -12 -20 -52 -26 -88 -7 -36 -16 -75 -21 -87 -13 -31 -68 -101 -141 -177 -35 -37 -64 -74 -64 -83 0 -8 -8 -20 -18 -27 -19 -14 -23 -36 -7 -36 6 0 17 8 25 18 8 9 63 69 121 132 109 119 164 189 164 211 0 7 -11 2 -25 -11 -24 -22 -25 -23 -25 -4 0 11 9 54 19 94 21 80 21 95 -2 58z"/>
<path d="M5257 2507 c-5 -14 -47 -15 -119 -2 -16 2 -28 0 -28 -5 0 -6 -8 -10 -17 -11 -14 0 -15 -2 -3 -6 8 -3 17 -10 21 -14 6 -11 100 -29 143 -29 24 0 27 3 16 10 -13 8 -13 10 2 10 9 0 18 -4 20 -10 2 -5 21 -16 43 -26 35 -14 38 -14 26 0 -17 21 -12 21 103 0 48 -8 91 -13 94 -10 3 4 -1 6 -9 6 -12 0 -11 2 1 10 27 17 -3 30 -91 41 -108 13 -182 29 -190 41 -3 5 -9 3 -12 -5z"/>
</g>
</svg> 